<?xml version="1.0" encoding="UTF-8" standalone="no"?>
<!-- Created with Inkscape (http://www.inkscape.org/) -->

<svg
   width="76.156082mm"
   height="85.225052mm"
   viewBox="0 0 76.156082 85.225052"
   version="1.1"
   id="svg1"
   xml:space="preserve"
   sodipodi:docname="logo-dongato.svg"
   inkscape:export-filename="logo-dongato.svg"
   inkscape:export-xdpi="96"
   inkscape:export-ydpi="96"
   inkscape:version="1.3 (0e150ed6c4, 2023-07-21)"
   xmlns:inkscape="http://www.inkscape.org/namespaces/inkscape"
   xmlns:sodipodi="http://sodipodi.sourceforge.net/DTD/sodipodi-0.dtd"
   xmlns="http://www.w3.org/2000/svg"
   xmlns:svg="http://www.w3.org/2000/svg"><sodipodi:namedview
     id="namedview1"
     pagecolor="#ffffff"
     bordercolor="#000000"
     borderopacity="0.25"
     inkscape:showpageshadow="2"
     inkscape:pageopacity="0.0"
     inkscape:pagecheckerboard="0"
     inkscape:deskcolor="#d1d1d1"
     inkscape:document-units="mm"
     inkscape:zoom="1.8596107"
     inkscape:cx="144.11619"
     inkscape:cy="161.05522"
     inkscape:window-width="1440"
     inkscape:window-height="837"
     inkscape:window-x="-8"
     inkscape:window-y="-8"
     inkscape:window-maximized="1"
     inkscape:current-layer="layer1" /><defs
     id="defs1" /><g
     inkscape:label="Capa 1"
     inkscape:groupmode="layer"
     id="layer1"
     transform="translate(-25.758397,-102.66887)"><path
       style="fill:#085964;fill-opacity:1"
       d="m 62.297807,186.06998 c -0.84488,-1.00317 -2.49404,-2.82029 -3.66482,-4.03804 l -2.12868,-2.2141 -1.17297,0.56988 c -1.92664,0.93603 -2.45718,0.43322 -3.02271,-2.86472 l -0.30565,-1.78238 -2.13697,-1.60649 c -3.16812,-2.38165 -5.76379,-4.07408 -8.99437,-5.86452 -1.58876,-0.88051 -2.71985,-1.65403 -2.51355,-1.71895 0.20631,-0.0649 1.14901,-0.22605 2.0949,-0.35808 l 1.71979,-0.24006 -1.50952,-0.72295 c -0.83023,-0.39762 -2.73523,-1.02853 -4.23333,-1.40202 -1.4981,-0.37349 -3.37457,-0.99228 -4.16993,-1.37509 -1.86413,-0.89721 -4.23339,-3.21732 -5.17178,-5.06451 -0.7045,-1.38678 -1.53855,-3.96588 -1.28252,-3.96588 0.0668,0 0.49249,0.19186 0.94594,0.42635 1.02172,0.52835 2.78663,0.3748 3.72573,-0.32416 1.04051,-0.77442 1.43073,-1.64642 1.76257,-3.93864 0.67725,-4.67819 2.17148,-8.91126 4.39669,-12.45562 l 1.40008,-2.23006 -0.9002,-1.94835 c -1.94721,-4.21448 -3.13747,-11.46448 -2.13369,-12.99645 0.64263,-0.98077 2.00789,-1.5671 3.15004,-1.35283 0.51356,0.0963 2.45138,0.9354 4.30625,1.86458 l 3.3725,1.6894 0.97893,-0.78668 c 1.1385,-0.91493 3.11714,-1.2314 4.99254,-0.79853 l 1.16363,0.26859 -0.15547,-4.01557 c -0.14508,-3.74704 -0.90943,-9.36955 -1.51401,-11.13687 -0.20592,-0.60195 -0.17301,-0.87167 0.14989,-1.22847 1.07559,-1.18851 7.79234,-1.98828 14.67045,-1.74683 4.89977,0.172 9.28097,0.87563 10.01353,1.6082 0.35409,0.35409 0.33414,0.72645 -0.18143,3.3848 -0.84017,4.33213 -1.08348,6.56701 -1.09268,10.03667 l -0.008,3.081 0.99219,-0.23041 c 2.2235,-0.51635 4.91978,0.0796 5.56336,1.22958 0.2353,0.42047 0.58664,0.299 3.70476,-1.28082 1.89464,-0.95993 3.88674,-1.82824 4.42689,-1.92957 1.28992,-0.24199 2.60958,0.38526 3.19588,1.51902 0.91256,1.76471 -0.15914,8.18119 -2.12649,12.73164 l -0.93417,2.16071 0.90257,1.35936 c 2.66573,4.01488 4.23962,8.44172 5.02659,14.13817 0.21937,1.58794 0.93758,2.71278 2.07748,3.2537 1.17241,0.55634 2.363663,0.56262 3.416823,0.018 l 0.81961,-0.42383 -0.16433,1.01265 c -0.26674,1.6437 -1.70852,4.25066 -3.190123,5.7682 -1.72704,1.76894 -3.94135,2.90101 -6.96523,3.56098 -1.29068,0.2817 -3.23254,0.90827 -4.31525,1.39239 l -1.96855,0.88021 1.05285,0.18679 c 0.57907,0.10273 1.55886,0.19364 2.17733,0.20203 0.61846,0.008 1.12397,0.10454 1.12334,0.21369 -6.2e-4,0.10914 -0.88786,0.65365 -1.97164,1.21002 -2.59804,1.33374 -6.72078,3.95953 -9.64252,6.14135 -2.25781,1.68604 -2.36181,1.80913 -2.5274,2.99127 -0.28131,2.00835 -0.92465,3.70635 -1.46982,3.87938 -0.27495,0.0873 -0.98796,-0.0928 -1.59601,-0.40296 -0.60446,-0.30837 -1.24854,-0.50331 -1.43129,-0.43318 -0.33349,0.12797 -4.10423,4.2166 -6.11606,6.63167 l -1.07567,1.29127 z m 1.83538,-2.96206 c 0.14552,-0.11218 1.26084,-1.22823 2.47849,-2.48012 l 2.21389,-2.27615 -1.2225,-0.71644 c -1.06749,-0.62559 -1.32806,-0.67964 -2.05494,-0.42624 -0.45784,0.1596 -1.21363,0.29019 -1.67952,0.29019 -0.46589,0 -1.22167,-0.13059 -1.67952,-0.29019 -0.72533,-0.25286 -0.98686,-0.19969 -2.03273,0.41323 l -1.20029,0.70342 2.32398,2.48543 c 1.27819,1.36698 2.38351,2.4889 2.45627,2.49313 0.0728,0.004 0.25135,-0.0841 0.39687,-0.19626 z m -2.42491,-10.04053 c 0.2577,-0.41137 4.03485,-0.45795 4.28522,-0.0529 0.0945,0.15284 0.26117,0.83745 0.37048,1.52136 0.19849,1.2419 0.19913,1.24253 0.50533,0.49864 0.16863,-0.40966 0.30785,-1.12403 0.30938,-1.5875 0.003,-0.79968 0.15712,-0.92808 3.02796,-2.51665 3.75152,-2.07591 4.06442,-2.07021 4.74976,0.0865 0.27746,0.87312 0.54555,1.6373 0.59576,1.69818 0.0502,0.0609 0.62721,-0.27419 1.28223,-0.74459 0.65502,-0.47041 2.46674,-1.62154 4.02605,-2.55808 l 2.8351,-1.70281 h -1.96173 -1.96172 l 0.9118,-0.94601 c 1.1136,-1.15539 3.96564,-3.08407 5.59055,-3.78059 1.34769,-0.57768 1.52977,-0.95972 1.53534,-3.22145 0.007,-2.83919 -1.19861,-6.15009 -3.09746,-8.50635 -0.87794,-1.08944 -1.11877,-1.2376 -1.97352,-1.21413 -0.53545,0.0147 -1.26768,-0.16599 -1.62719,-0.40155 -0.61123,-0.40049 -0.72797,-0.39238 -1.79873,0.12496 -3.81045,1.841 -8.68646,0.0941 -10.75885,-3.85453 -0.60747,-1.15745 -0.70933,-1.67413 -0.70979,-3.60035 -4.4e-4,-1.84465 0.11096,-2.463 0.61965,-3.43958 0.84488,-1.62198 2.28556,-3.0814 3.87138,-3.92175 1.13146,-0.59958 1.64838,-0.70103 3.57187,-0.70103 1.92684,0 2.44252,0.10158 3.60035,0.70925 3.65722,1.91945 5.45091,6.15635 4.18491,9.88527 -0.39999,1.17815 -0.39465,1.25133 0.13229,1.81223 0.32551,0.34648 0.54912,0.93814 0.54912,1.4529 0,0.63566 0.28231,1.1891 1.0534,2.06511 2.32539,2.64178 3.54366,5.85554 3.56371,9.40098 0.007,1.27293 0.0497,2.31472 0.0944,2.3151 0.24215,0.002 2.73697,-0.63222 3.82133,-0.97151 1.39632,-0.43691 1.65558,-0.87988 0.51497,-0.87988 -0.74309,0 -3.49169,-1.21633 -3.49135,-1.54502 10e-5,-0.0961 1.10142,-0.17967 2.44739,-0.18566 2.1119,-0.009 2.65197,-0.10997 3.94149,-0.734 2.17918,-1.05457 2.329,-1.36763 0.66562,-1.39084 -2.47919,-0.0346 -4.4382,-1.50241 -5.34574,-4.00539 -0.3699,-1.02016 -1.36418,-3.2901 -1.91654,-4.37546 -0.0554,-0.10881 0.71283,0.26552 1.70711,0.83184 0.99428,0.56632 1.85251,0.98764 1.90718,0.93628 0.0547,-0.0514 -0.41907,-1.14007 -1.05275,-2.41934 -0.84259,-1.70105 -1.67843,-2.87686 -3.11106,-4.37648 -1.07741,-1.12778 -1.84527,-2.05052 -1.70637,-2.05052 0.42724,0 2.84064,0.85327 3.19109,1.12823 1.09063,0.85568 -0.61196,-2.2747 -2.69903,-4.96243 l -1.17935,-1.51877 0.88069,-1.75528 c 2.3737,-4.73096 3.93256,-12.15416 2.65528,-12.6443 -0.70347,-0.26995 -10.04659,4.58092 -11.36765,5.90198 -0.31599,0.31598 -0.40679,0.70849 -0.30666,1.32552 l 0.14225,0.87661 -1.03061,-0.52578 c -0.56683,-0.28918 -1.4223,-0.52432 -1.90104,-0.52255 -1.11029,0.004 -4.21313,1.37691 -7.05425,3.12102 -3.51144,2.1556 -6.12176,2.96552 -9.52886,2.95658 -6.44428,-0.0169 -11.87891,-3.62218 -13.61086,-9.02923 -0.1543,-0.4817 -7.36998,-4.19535 -8.15164,-4.19535 -0.54109,0 -0.55792,0.067 -0.49869,1.98438 0.0886,2.86922 1.15763,6.82222 2.84044,10.50363 l 0.93454,2.04443 -1.31737,1.79576 c -1.52468,2.07836 -2.83566,4.27788 -2.65652,4.45702 0.0681,0.0681 0.52905,-0.0428 1.02433,-0.24639 0.49529,-0.20361 1.31724,-0.45684 1.82657,-0.56273 l 0.92604,-0.19252 -1.55385,1.55144 c -1.79533,1.79255 -2.67626,3.01329 -3.83494,5.31421 -1.00088,1.98757 -1.05181,2.39482 -0.23361,1.86769 0.32742,-0.21094 1.18904,-0.72872 1.91471,-1.15061 l 1.31939,-0.76707 -0.57414,0.9731 c -0.31578,0.5352 -0.88288,1.82898 -1.26022,2.87505 -0.37734,1.04608 -0.92884,2.2429 -1.22556,2.6596 -0.87175,1.22425 -2.69335,2.14173 -4.33009,2.1809 -1.70594,0.0408 -1.58656,0.33888 0.55549,1.38689 1.6607,0.8125 4.39396,1.11713 6.04782,0.67404 l 1.05833,-0.28355 -0.79375,0.65265 c -0.43656,0.35896 -1.44859,0.84515 -2.24896,1.08042 -0.80036,0.23528 -1.6338,0.48251 -1.85208,0.54941 -0.54118,0.16584 0.90587,0.70199 3.78369,1.4019 1.28066,0.31147 3.00376,0.86495 3.82911,1.22996 1.89062,0.83612 4.71216,2.71971 5.88201,3.92669 l 0.89649,0.92495 h -1.95999 -1.95999 l 2.5034,1.53343 c 1.37687,0.84339 3.18981,1.99253 4.02875,2.55365 0.83894,0.56112 1.56551,0.97241 1.61461,0.91397 0.0491,-0.0584 0.23471,-0.69998 0.41246,-1.42565 0.60711,-2.4784 0.95422,-2.51633 4.60385,-0.50312 3.3341,1.83915 3.35311,1.85482 3.35311,2.76373 0,0.40927 0.13998,1.0793 0.31106,1.48896 l 0.31107,0.74483 0.15882,-1.19063 c 0.0874,-0.65484 0.25205,-1.33945 0.36601,-1.52135 z m 1.67013,-2.02818 c -0.60756,-0.92726 -2.73425,-2.22445 -4.58309,-2.7955 -2.16884,-0.66989 -3.20326,-1.20667 -4.26204,-2.21166 l -0.86866,-0.82453 1.32396,-0.45003 1.32396,-0.45003 0.88604,0.88604 c 1.25829,1.25829 3.36473,1.83909 6.67003,1.83909 3.26949,0 5.26874,-0.55013 6.61561,-1.82038 l 0.95887,-0.90434 1.17639,0.43601 c 0.64701,0.2398 1.13607,0.5587 1.08678,0.70866 -0.2047,0.62283 -2.43445,2.01363 -4.00698,2.49934 -2.40575,0.74306 -4.16493,1.69701 -5.106,2.76884 l -0.8152,0.92846 z m -16.37306,-7.17431 c -5.38026,-1.72801 -4.86765,-8.82345 0.72368,-10.01697 l 0.79375,-0.16943 -0.76027,0.57911 c -2.33658,1.77981 -1.42501,4.53239 1.15864,3.49862 0.80916,-0.32376 1.38265,-0.89324 2.48778,-2.47039 1.6259,-2.32032 2.88358,-3.41891 5.04896,-4.41025 1.94026,-0.88828 4.55211,-0.83407 5.89529,0.12235 0.83648,0.59563 0.85385,0.64972 0.84816,2.64059 -0.007,2.60455 -0.52933,3.77266 -2.58378,5.78312 -1.76171,1.72401 -3.72848,2.98885 -6.19948,3.98693 -2.0997,0.8481 -5.53455,1.05955 -7.41273,0.45632 z m 27.59921,-0.0155 c -2.95025,-0.79317 -6.58995,-3.08383 -8.34527,-5.25213 -1.32871,-1.64131 -1.74923,-2.66532 -1.91717,-4.66854 -0.13112,-1.56407 -0.0798,-1.918 0.34779,-2.39792 0.75516,-0.8476 2.03154,-1.28439 3.73427,-1.27793 2.79647,0.0106 5.47282,1.67626 7.62226,4.74375 0.79795,1.13875 1.71812,2.24352 2.04482,2.45505 1.65146,1.06926 3.10756,0.60577 3.10756,-0.98916 0,-0.68963 -0.22946,-1.12115 -0.98777,-1.85762 l -0.98778,-0.95931 0.78934,0.18412 c 1.46279,0.34122 3.00604,1.42747 3.69272,2.5992 1.22739,2.09438 0.6964,5.18274 -1.11146,6.46458 -1.88241,1.33469 -5.13352,1.72368 -7.98931,0.95591 z m -12.31795,-4.04886 c 0.52407,-0.56642 1.09442,-1.22336 1.26743,-1.45986 0.27423,-0.37485 0.46077,-0.24278 1.45459,1.02987 l 1.14002,1.45986 h -2.40746 -2.40745 z m 0.41239,-10.15965 c -0.33639,-0.88476 -0.93299,-1.28377 -1.78427,-1.19332 -1.13595,0.12069 -1.17607,-1.02281 -0.0797,-2.27152 1.57014,-1.78829 4.49161,-1.84011 5.95115,-0.10555 1.12501,1.337 1.18617,2.79354 0.10286,2.44971 -0.81459,-0.25854 -1.50058,0.10241 -1.79394,0.94392 -0.23381,0.67073 -0.40856,0.78294 -1.21928,0.78294 -0.74299,0 -0.99589,-0.13027 -1.17683,-0.60618 z m -11.39243,-2.35175 c -1.78427,-0.3164 -3.17146,-1.45575 -4.16818,-3.42348 -0.85669,-1.6913 -1.53939,-2.45457 -1.96188,-2.19345 -0.61834,0.38215 -0.10668,-0.69113 0.74989,-1.57302 3.34166,-3.4404 8.67868,-2.80814 11.09462,1.31435 0.79236,1.35206 1.12521,4.00402 0.65446,5.21426 l -0.29032,0.74635 -0.68762,-0.54088 c -0.62664,-0.49292 -0.75317,-0.50698 -1.42683,-0.15862 -1.17551,0.60788 -2.68334,0.84161 -3.96414,0.61449 z m 2.89934,-1.60613 c 2.31338,-1.18207 2.70732,-2.9609 1.05732,-4.7742 l -0.77181,-0.8482 -0.008,0.72761 c -0.006,0.59485 -0.12674,0.7276 -0.65991,0.7276 -0.38208,0 -0.76982,0.21987 -0.9363,0.53094 -0.23329,0.43591 -0.16392,0.65116 0.38757,1.20265 l 0.67171,0.67172 -0.64943,0.64943 c -1.94865,1.94865 -3.9388,-1.22045 -2.67136,-4.25386 0.44749,-1.071 0.37616,-1.10308 -0.81536,-0.36668 -1.73854,1.07448 -2.06568,2.16298 -1.17485,3.90915 0.61851,1.21237 1.03748,1.57907 2.33193,2.04098 1.39379,0.49736 1.90734,0.46292 3.23825,-0.21714 z M 41.179987,132.0673 c -1.10794,-2.39432 -1.95693,-5.06916 -2.20681,-6.95278 -0.15212,-1.14677 -0.11426,-1.32578 0.2804,-1.32578 0.61682,0 1.79992,0.85786 3.76932,2.73313 2.67602,2.54813 2.76429,4.00765 0.38415,6.352 l -1.27342,1.25428 z m 43.01577,0.7598 c -2.37061,-2.21014 -2.11683,-4.3013 0.82077,-6.76329 2.71768,-2.27768 3.85521,-2.80284 3.85521,-1.77983 0,1.14447 -1.33812,5.61667 -2.2855,7.63853 l -1.0218,2.18064 z m -5.64277,15.81169 c 1.59831,-0.72265 2.84378,-1.95063 3.60169,-3.55109 0.64128,-1.35418 0.83594,-3.1498 0.37252,-3.43621 -0.5035,-0.31118 -1.31367,0.4153 -1.62612,1.45816 -0.40243,1.3432 -1.84596,3.03673 -3.15973,3.70697 -1.34514,0.68623 -3.63299,0.69296 -4.96271,0.0146 -0.7271,-0.37094 -1.11671,-0.43498 -1.46399,-0.24063 -0.45371,0.25391 -0.45333,0.28722 0.009,0.80754 1.47864,1.66368 4.96885,2.26267 7.22922,1.24067 z m 4.7625,-0.63437 c 0,-0.96425 -0.50495,-1.07781 -1.28429,-0.28883 -0.67597,0.68434 -0.68288,0.72157 -0.20052,1.0807 0.6666,0.4963 1.48481,0.0599 1.48481,-0.79187 z m -5.83291,-2.42251 c 0.9332,-0.55126 1.85245,-1.93688 2.03621,-3.06926 0.12969,-0.79915 0.0264,-1.04537 -0.77511,-1.84683 -0.99196,-0.99196 -2.20562,-1.52639 -1.93138,-0.85048 0.0843,0.20766 0.21435,0.52722 0.28911,0.71014 0.0748,0.18291 -0.1336,0.4508 -0.46302,0.59531 -0.85125,0.37342 -0.85396,1.81402 -0.004,1.93479 0.76794,0.10906 0.75505,0.62628 -0.0386,1.54896 -0.55172,0.64141 -0.72833,0.70336 -1.36203,0.47777 -1.15941,-0.41273 -1.79129,-1.5008 -1.92215,-3.30982 -0.11459,-1.58427 -0.12199,-1.59713 -0.64896,-1.12804 -0.63896,0.56876 -1.25377,1.94036 -1.25377,2.79702 0,0.78732 1.39939,2.23253 2.47953,2.56071 1.03298,0.31385 2.67638,0.12167 3.59381,-0.42027 z m -6.99796,-3.82718 c 1.13415,-2.25046 3.80561,-3.94307 6.22337,-3.94307 1.52031,0 3.64184,0.89699 4.80282,2.03066 1.11019,1.08408 1.2841,0.85948 0.50494,-0.65214 -0.60199,-1.16791 -1.91824,-2.45594 -3.19818,-3.12959 -1.36366,-0.71771 -4.54103,-0.67482 -5.95313,0.0804 -1.25147,0.66928 -2.5301,1.97034 -3.20204,3.2582 -0.52792,1.01183 -0.69076,4.21387 -0.26237,5.15937 0.19953,0.44038 0.27257,0.3251 0.4353,-0.68713 0.10755,-0.66897 0.39973,-1.62147 0.64929,-2.11667 z m -9.26627,-10.07641 c 1.59248,-0.40842 3.18409,-1.30931 5.95755,-3.37208 5.45168,-4.05472 10.60668,-5.77561 12.41064,-4.14305 0.57608,0.52134 0.81853,0.53167 0.81853,0.0349 0,-1.58148 -1.37187,-2.40244 -3.66685,-2.19433 -2.80677,0.25451 -6.16502,1.93635 -9.78429,4.90006 -4.00287,3.27784 -5.75945,4.06697 -9.17073,4.1199 -2.56676,0.0398 -4.56209,-0.51879 -6.49188,-1.81744 -0.76309,-0.51352 -1.43599,-0.88513 -1.49533,-0.82579 -0.21967,0.21967 2.19188,2.05908 3.52864,2.69147 2.38763,1.12953 5.05498,1.33444 7.89372,0.60639 z m 2.25339,-4.71458 c 0,-0.14552 -0.32743,-0.26521 -0.72761,-0.26598 -0.40018,-7.6e-4 -1.07868,-0.2146 -1.50778,-0.47519 l -0.78017,-0.47381 -0.0536,-8.3222 c -0.0295,-4.57721 -0.16352,-8.95064 -0.29783,-9.71874 -0.28994,-1.65811 0.0257,-2.28687 1.44582,-2.88024 0.50603,-0.21143 0.85625,-0.44824 0.77826,-0.52623 -0.15727,-0.15727 -6.24139,0.35487 -7.26356,0.61142 -0.57855,0.14521 -0.62992,0.26344 -0.4861,1.11865 0.71313,4.24032 1.02957,8.18395 1.04709,13.04921 0.0108,3.01309 -0.0587,5.55674 -0.15451,5.65257 -0.2209,0.2209 -1.97571,-0.85129 -2.27835,-1.39207 -0.19033,-0.34011 -0.25122,-0.31567 -0.37292,0.14972 -0.44256,1.69235 2.99797,3.10689 8.66691,3.56331 0.58208,0.0469 1.26669,0.10522 1.52135,0.12969 0.25467,0.0245 0.46303,-0.0746 0.46303,-0.22011 z m 9.15881,-5.49416 c 0.17868,-0.11762 0.41018,-2.02278 0.58625,-4.82459 0.16004,-2.54662 0.54544,-6.09631 0.85646,-7.8882 0.31101,-1.7919 0.50844,-3.31504 0.43872,-3.38475 -0.0697,-0.0697 -0.588,-0.19679 -1.15173,-0.28238 l -1.02497,-0.15562 0.56366,0.54463 0.56366,0.54463 -0.47392,2.59886 c -0.80469,4.41269 -1.36909,13.05642 -0.85184,13.04586 0.10914,-0.002 0.33131,-0.0915 0.49371,-0.19844 z"
       id="path1"
       inkscape:export-filename="path1.png"
       inkscape:export-xdpi="96"
       inkscape:export-ydpi="96"
       inkscape:highlight-color="#085964" /></g></svg>
